# xmcd
#
# Track frame offsets: 
#        150
#        18860
#        38865
#        59727
#        82575
#        107782
#        123540
#        145562
#        167220
#        185795
#        204755
#        221952
#        239522
#        261860
#        281297
#        298285
#        314375
#
# Disc length: 4518 seconds
#
# Revision: 2
# Processed by: cddbd v1.5.2PL0 Copyright (c) Steve Scherf et al.
# Submitted via: ExactAudioCopy v1.1
#
DISCID=0211a411
DTITLE=Mariah Carey - Best Songs
DYEAR=1999
DGENRE=Pop-Rock
TTITLE0=Emotions
TTITLE1=And You Don't Remember
TTITLE2=If It's Over
TTITLE3=You're So Cold
TTITLE4=Till The End Of Time
TTITLE5=Vision Of Love
TTITLE6=There's Got To Be A Way
TTITLE7=I Don't Wanna Cry
TTITLE8=Someday
TTITLE9=Alone In Love
TTITLE10=Love Takes Time
TTITLE11=Dreamlover
TTITLE12=Music Box
TTITLE13=Now That I Know
TTITLE14=Never Forget You
TTITLE15=Without You
TTITLE16=Everything Fades Away
EXTD=
EXTT0=
EXTT1=
EXTT2=
EXTT3=
EXTT4=
EXTT5=
EXTT6=
EXTT7=
EXTT8=
EXTT9=
EXTT10=
EXTT11=
EXTT12=
EXTT13=
EXTT14=
EXTT15=
EXTT16=
PLAYORDER=
